<svg width="500" height="488" viewBox="0 0 500 488" fill="none" xmlns="http://www.w3.org/2000/svg">
<path fill-rule="evenodd" clip-rule="evenodd" d="M113.586 10C113.586 4.47716 118.063 0 123.586 0H490C495.523 0 500 4.47715 500 10L500 96.8992L500 131.783L500 337.209H499.999C500 337.306 500 337.403 500 337.5C500 372.018 464.183 400 420 400C375.817 400 340 372.018 340 337.5C340 302.982 375.817 275 420 275C431.856 275 443.109 277.015 453.229 280.63V131.783H160.356V425.065H159.998C159.999 425.21 160 425.355 160 425.5C160 460.018 124.183 488 80 488C35.8172 488 0 460.018 0 425.5C0 390.982 35.8172 363 80 363C91.9949 363 103.373 365.062 113.586 368.758V131.783V96.8992V10Z" fill="#E8E8E8" fill-opacity="0.1"/>
</svg>
