<svg id="Layer_1" data-name="Layer 1" xmlns="http://www.w3.org/2000/svg" viewBox="0 0 870.99 95"><defs><style>.cls-1{stroke:#fff;stroke-miterlimit:10;}</style></defs><title>111</title><path class="cls-1" d="M85.08,92.91,85,33l-29.3,50.6h-2.5l-29.3-50.4v59.7h-5v-70h4.3L54.48,77l31.3-54.1H90l.1,70Z" transform="translate(-18.38 -18.21)"/><path class="cls-1" d="M145.38,45.26q5.19,5,5.19,14.55v33.1h-4.8v-9.3a17.34,17.34,0,0,1-7.29,7.15A24.25,24.25,0,0,1,127,93.31q-8.72,0-13.75-4.1a13.22,13.22,0,0,1-5.06-10.8,13.36,13.36,0,0,1,4.65-10.55q4.65-4.05,14.85-4h17.9v-4.2q0-7.29-3.94-11.1t-11.56-3.8a27.79,27.79,0,0,0-9.94,1.8,25,25,0,0,0-8.06,4.8l-2.5-3.6A27.86,27.86,0,0,1,119,42.26a34.13,34.13,0,0,1,11.5-1.95Q140.17,40.31,145.38,45.26Zm-6.65,40.95a18.23,18.23,0,0,0,6.84-8.7v-9.8h-17.8q-7.69,0-11.14,2.8a9.37,9.37,0,0,0-3.46,7.7A9.62,9.62,0,0,0,117,86.26q3.8,3,10.69,2.95A19.66,19.66,0,0,0,138.73,86.21Z" transform="translate(-18.38 -18.21)"/><path class="cls-1" d="M183.47,43.36a23.8,23.8,0,0,1,12.4-3v4.9l-1.2-.1q-8.7,0-13.6,5.45t-4.9,15.15v27.2h-5V40.71H176v11.4A18.09,18.09,0,0,1,183.47,43.36Z" transform="translate(-18.38 -18.21)"/><path class="cls-1" d="M216.27,89.91a24.33,24.33,0,0,1-9.4-9.45,27.43,27.43,0,0,1-3.4-13.65,27.67,27.67,0,0,1,3.4-13.75,24.13,24.13,0,0,1,9.4-9.4,27.47,27.47,0,0,1,13.6-3.35,26.35,26.35,0,0,1,11.45,2.45,20.68,20.68,0,0,1,8.35,7.15l-3.7,2.7A17.7,17.7,0,0,0,239,46.76a21.2,21.2,0,0,0-9.15-1.95,21.88,21.88,0,0,0-11,2.75,19.67,19.67,0,0,0-7.6,7.75,23.54,23.54,0,0,0-2.75,11.5,23.48,23.48,0,0,0,2.75,11.5,19.54,19.54,0,0,0,7.6,7.75,21.77,21.77,0,0,0,11,2.75,21.2,21.2,0,0,0,9.15-2A17.7,17.7,0,0,0,246,81l3.7,2.7a20.53,20.53,0,0,1-8.35,7.15,26.21,26.21,0,0,1-11.45,2.45A27.08,27.08,0,0,1,216.27,89.91Z" transform="translate(-18.38 -18.21)"/><path class="cls-1" d="M307.88,68H263a21.89,21.89,0,0,0,3.1,10.85,19.9,19.9,0,0,0,7.85,7.35,25.14,25.14,0,0,0,20.6.75,18.35,18.35,0,0,0,7.25-5.45l2.9,3.3a22.09,22.09,0,0,1-8.54,6.3,29.8,29.8,0,0,1-25.06-1.2,24.65,24.65,0,0,1-9.55-9.4,27,27,0,0,1-3.45-13.7,28.5,28.5,0,0,1,3.25-13.65,24,24,0,0,1,8.95-9.45,25.87,25.87,0,0,1,25.55-.05,23.79,23.79,0,0,1,8.9,9.35A28.07,28.07,0,0,1,308,66.61ZM273.17,47.16a18.72,18.72,0,0,0-7,6.9,22.51,22.51,0,0,0-3.06,10h40a20.75,20.75,0,0,0-3-10,19.42,19.42,0,0,0-17-9.4A20.07,20.07,0,0,0,273.17,47.16Z" transform="translate(-18.38 -18.21)"/><path class="cls-1" d="M323.47,18.71h5v74.2h-5Z" transform="translate(-18.38 -18.21)"/><path class="cls-1" d="M425.77,88.31v4.6h-56.4v-3.6l48.3-61.8H370v-4.6h54.7v3.6l-48.2,61.8Z" transform="translate(-18.38 -18.21)"/><path class="cls-1" d="M484.57,18.71v74.2h-4.9V80.61A22.44,22.44,0,0,1,471,90a24.54,24.54,0,0,1-12.7,3.3,25.91,25.91,0,0,1-13.2-3.4,24.29,24.29,0,0,1-9.25-9.4,27.64,27.64,0,0,1-3.35-13.7,28,28,0,0,1,3.35-13.75,24,24,0,0,1,9.25-9.4,26.28,26.28,0,0,1,13.2-3.35,24.07,24.07,0,0,1,12.55,3.3,23.5,23.5,0,0,1,8.75,9.2V18.71ZM469.32,86a20,20,0,0,0,7.5-7.8,23.28,23.28,0,0,0,2.75-11.4,23.34,23.34,0,0,0-2.75-11.4,20.1,20.1,0,0,0-7.5-7.8,22,22,0,0,0-21.5,0,20.1,20.1,0,0,0-7.5,7.8,23.34,23.34,0,0,0-2.75,11.4,23.28,23.28,0,0,0,2.75,11.4,20,20,0,0,0,7.5,7.8,22,22,0,0,0,21.5,0Z" transform="translate(-18.38 -18.21)"/><path class="cls-1" d="M518,43.36a23.77,23.77,0,0,1,12.4-3v4.9l-1.2-.1q-8.7,0-13.6,5.45t-4.9,15.15v27.2h-5V40.71h4.8v11.4A18.09,18.09,0,0,1,518,43.36Z" transform="translate(-18.38 -18.21)"/><path class="cls-1" d="M550.72,89.91a24.4,24.4,0,0,1-9.35-9.45A27.32,27.32,0,0,1,538,66.81a27.38,27.38,0,0,1,3.4-13.65,24.54,24.54,0,0,1,9.35-9.45,27.91,27.91,0,0,1,26.7,0,24.54,24.54,0,0,1,9.35,9.45,27.38,27.38,0,0,1,3.4,13.65,27.32,27.32,0,0,1-3.4,13.65,24.4,24.4,0,0,1-9.35,9.45,27.91,27.91,0,0,1-26.7,0Zm24.1-3.9a20,20,0,0,0,7.5-7.8,23.28,23.28,0,0,0,2.75-11.4,23.34,23.34,0,0,0-2.75-11.4,20.1,20.1,0,0,0-7.5-7.8,22,22,0,0,0-21.5,0,20.1,20.1,0,0,0-7.5,7.8,23.34,23.34,0,0,0-2.75,11.4,23.28,23.28,0,0,0,2.75,11.4,20,20,0,0,0,7.5,7.8,22,22,0,0,0,21.5,0Z" transform="translate(-18.38 -18.21)"/><path class="cls-1" d="M590.92,111.81a11.89,11.89,0,0,1-4.65-2.6l2-3.7a12.19,12.19,0,0,0,8.5,2.9q4.61,0,7-2.7t2.4-7.8V40.71h5v57.4q0,6.7-3.7,10.65t-10.4,3.95A20.32,20.32,0,0,1,590.92,111.81Zm14.85-84.95a3.77,3.77,0,0,1-1.2-2.85,4.1,4.1,0,0,1,4.1-4.1,4.07,4.07,0,0,1,2.9,1.15,3.8,3.8,0,0,1,1.2,2.85,4.1,4.1,0,0,1-4.1,4.1A4,4,0,0,1,605.77,26.86Z" transform="translate(-18.38 -18.21)"/><path class="cls-1" d="M676.37,68h-44.9a21.69,21.69,0,0,0,3.1,10.85,19.77,19.77,0,0,0,7.85,7.35,23.51,23.51,0,0,0,11.15,2.6A23.78,23.78,0,0,0,663,87a18.42,18.42,0,0,0,7.25-5.45l2.9,3.3a22.2,22.2,0,0,1-8.55,6.3,29.77,29.77,0,0,1-25-1.2,24.58,24.58,0,0,1-9.55-9.4,27,27,0,0,1-3.45-13.7,28.38,28.38,0,0,1,3.25-13.65,24,24,0,0,1,8.95-9.45,25.87,25.87,0,0,1,25.55-.05,23.93,23.93,0,0,1,8.9,9.35,28.19,28.19,0,0,1,3.25,13.6Zm-34.7-20.85a18.67,18.67,0,0,0-7,6.9,22.38,22.38,0,0,0-3,10h40a21,21,0,0,0-3-10,19.42,19.42,0,0,0-17-9.4A20,20,0,0,0,641.67,47.16Z" transform="translate(-18.38 -18.21)"/><path class="cls-1" d="M765.57,40.71l-19.8,52.2h-4.7l-17.6-45.3-17.7,45.3h-4.6l-19.8-52.2h4.8l17.4,46.6,17.8-46.6h4.3l17.7,46.5L761,40.71Z" transform="translate(-18.38 -18.21)"/><path class="cls-1" d="M777.77,91.41a24.59,24.59,0,0,1-8.9-4.8l2.3-4a26.38,26.38,0,0,0,8.25,4.5A31.14,31.14,0,0,0,790,88.91q7.89,0,11.65-2.6a8.28,8.28,0,0,0,3.75-7.2,6.77,6.77,0,0,0-2-5.2,12.75,12.75,0,0,0-5.05-2.8q-3-.9-8.3-1.9a68.11,68.11,0,0,1-10-2.4,15.5,15.5,0,0,1-6.5-4.2q-2.7-2.89-2.7-8a12.5,12.5,0,0,1,5.15-10.25q5.15-4.05,14.65-4a36,36,0,0,1,9.9,1.4,25.09,25.09,0,0,1,8,3.7l-2.3,4a24.08,24.08,0,0,0-7.3-3.5,29.82,29.82,0,0,0-8.4-1.2q-7.31,0-11,2.7a8.38,8.38,0,0,0-3.7,7.1,7.06,7.06,0,0,0,2.1,5.45,13.13,13.13,0,0,0,5.15,2.9,85.79,85.79,0,0,0,8.55,2,75.19,75.19,0,0,1,9.85,2.35,15.14,15.14,0,0,1,6.35,4,10.91,10.91,0,0,1,2.6,7.7,12.2,12.2,0,0,1-5.4,10.4q-5.4,3.9-15.2,3.9A37.6,37.6,0,0,1,777.77,91.41Z" transform="translate(-18.38 -18.21)"/><path class="cls-1" d="M843,65l-13.6,12.4v15.5h-5V18.71h5v52.5l33.4-30.5h6.4l-22.5,21.1,24.7,31.1h-6.2Z" transform="translate(-18.38 -18.21)"/><path class="cls-1" d="M881.87,26.86a3.77,3.77,0,0,1-1.2-2.85,4.1,4.1,0,0,1,4.1-4.1,4.07,4.07,0,0,1,2.9,1.15,3.8,3.8,0,0,1,1.2,2.85,4.1,4.1,0,0,1-4.1,4.1A4,4,0,0,1,881.87,26.86Zm.4,13.85h5v52.2h-5Z" transform="translate(-18.38 -18.21)"/></svg>